<svg width="24" height="24" viewBox="0 0 24 24" fill="none" xmlns="http://www.w3.org/2000/svg">
<g clip-path="url(#clip0)">
<path d="M21.3143 0H7.29379C6.49144 0 5.83864 0.652795 5.83864 1.45515V4.71151C3.17894 5.47266 1.22656 7.92604 1.22656 10.8269C1.22656 13.7278 3.17889 16.1812 5.83864 16.9423V22.545C5.83864 23.3473 6.49144 24.0001 7.29379 24.0001H18.7513C18.8872 24.0001 19.0175 23.9461 19.1137 23.85L22.6193 20.3443C22.7154 20.2482 22.7694 20.1178 22.7694 19.9819V1.45515C22.7694 0.652795 22.1167 0 21.3143 0ZM7.29379 1.02503H21.3143C21.5515 1.02503 21.7444 1.21797 21.7444 1.45515V3.00191H6.86367V1.45515C6.86367 1.21797 7.05662 1.02503 7.29379 1.02503ZM2.25159 10.8269C2.25159 7.88538 4.64463 5.49233 7.58611 5.49233C10.5276 5.49233 12.9206 7.88538 12.9206 10.8269C12.9206 13.7683 10.5276 16.1614 7.58611 16.1614C4.64463 16.1614 2.25159 13.7683 2.25159 10.8269ZM6.86367 22.5449V17.1452C7.10089 17.1721 7.34187 17.1865 7.58616 17.1865C9.49637 17.1865 11.2124 16.3397 12.3791 15.0021H15.5194C15.8025 15.0021 16.0319 14.7726 16.0319 14.4896C16.0319 14.2065 15.8025 13.9771 15.5194 13.9771H13.1091C13.5549 13.1985 13.8405 12.3172 13.9215 11.3783H15.5194C15.8024 11.3783 16.0319 11.1488 16.0319 10.8658C16.0319 10.5827 15.8024 10.3532 15.5194 10.3532H13.928C13.8587 9.41637 13.5853 8.53544 13.1526 7.75451H15.5193C15.8024 7.75451 16.0318 7.52506 16.0318 7.242C16.0318 6.95895 15.8024 6.72949 15.5193 6.72949H12.4455C11.2781 5.34702 9.53298 4.46726 7.58602 4.46726C7.34172 4.46726 7.10074 4.48161 6.86352 4.50855V4.02694H21.7443V19.4693H19.6938C18.8914 19.4693 18.2387 20.1221 18.2387 20.9244V22.975H7.29379C7.05662 22.975 6.86367 22.7821 6.86367 22.5449ZM19.2638 22.2501V20.9244C19.2638 20.6873 19.4568 20.4944 19.6939 20.4944H21.0196L19.2638 22.2501Z" fill="white"/>
<path d="M17.535 7.75354H19.237C19.5201 7.75354 19.7495 7.52408 19.7495 7.24103C19.7495 6.95797 19.5201 6.72852 19.237 6.72852H17.535C17.2519 6.72852 17.0225 6.95797 17.0225 7.24103C17.0225 7.52408 17.2519 7.75354 17.535 7.75354Z" fill="white"/>
<path d="M17.535 11.3785H19.237C19.5201 11.3785 19.7495 11.1491 19.7495 10.866C19.7495 10.583 19.5201 10.3535 19.237 10.3535H17.535C17.2519 10.3535 17.0225 10.583 17.0225 10.866C17.0225 11.1491 17.2519 11.3785 17.535 11.3785Z" fill="white"/>
<path d="M17.535 15.0016H19.237C19.5201 15.0016 19.7495 14.7721 19.7495 14.4891C19.7495 14.206 19.5201 13.9766 19.237 13.9766H17.535C17.2519 13.9766 17.0225 14.206 17.0225 14.4891C17.0225 14.7721 17.2519 15.0016 17.535 15.0016Z" fill="white"/>
<path d="M19.2337 18.6266C19.5168 18.6266 19.7462 18.3971 19.7462 18.1141C19.7462 17.831 19.5168 17.6016 19.2337 17.6016H14.4393C14.1562 17.6016 13.9268 17.831 13.9268 18.1141C13.9268 18.3971 14.1562 18.6266 14.4393 18.6266H19.2337Z" fill="white"/>
<path d="M11.5637 8.24182L10.9384 7.61656C10.77 7.44821 10.5462 7.35547 10.308 7.35547C10.0699 7.35547 9.84602 7.44821 9.67762 7.61656L6.39803 10.8962L5.49147 9.98959C5.32312 9.82129 5.09922 9.72855 4.86112 9.72855C4.62302 9.72855 4.39913 9.82129 4.23078 9.98964L3.60537 10.615C3.25784 10.9626 3.25784 11.5282 3.60542 11.8757L5.76759 14.0379C5.93599 14.2063 6.15988 14.299 6.39803 14.299H6.39808C6.63618 14.299 6.86007 14.2063 7.02837 14.038L11.5637 9.5026C11.9113 9.15502 11.9113 8.5894 11.5637 8.24182ZM6.39798 13.2187L4.42461 11.2453L4.86107 10.8089L6.03556 11.9834C6.23573 12.1835 6.56023 12.1835 6.7604 11.9834L10.308 8.43575L10.7445 8.87221L6.39798 13.2187Z" fill="white"/>
</g>
<defs>
<clipPath id="clip0">
<rect width="24" height="24" fill="white"/>
</clipPath>
</defs>
</svg>
