<svg width="24" height="24" viewBox="0 0 24 24" fill="none" xmlns="http://www.w3.org/2000/svg">
<g clip-path="url(#clip0)">
<path d="M12.0197 5.17188C8.62286 5.17188 5.84766 7.94708 5.84766 11.3439C5.84766 13.1201 6.62471 14.8296 7.93461 15.9841C8.91149 16.961 8.82268 19.0479 8.80048 19.0701C8.80048 19.1811 8.82268 19.2699 8.91149 19.3587C8.97809 19.4253 9.0891 19.4697 9.17791 19.4697H14.8393C14.9503 19.4697 15.0391 19.4253 15.1058 19.3587C15.1724 19.2921 15.2168 19.1811 15.2168 19.0701C15.2168 19.0479 15.1058 16.961 16.0826 15.9841C16.1048 15.9619 16.127 15.9397 16.1492 15.9175C17.4369 14.7408 18.1918 13.0757 18.1918 11.3439C18.1918 7.94708 15.4166 5.17188 12.0197 5.17188ZM15.572 15.4068C15.5498 15.429 15.5054 15.4734 15.5054 15.4957C14.6395 16.4281 14.4841 17.96 14.4619 18.6927H9.55533C9.53313 17.96 9.37772 16.3615 8.44525 15.4068C7.26856 14.3856 6.58031 12.8981 6.58031 11.3217C6.58031 8.32451 9.00029 5.90453 11.9975 5.90453C14.9947 5.90453 17.4147 8.32451 17.4147 11.3217C17.4147 12.8981 16.7487 14.3856 15.572 15.4068Z" fill="white"/>
<path d="M11.9975 6.75C11.7977 6.75 11.6201 6.92761 11.6201 7.12743C11.6201 7.32724 11.7977 7.50486 11.9975 7.50486C14.2399 7.50486 16.0382 9.32539 16.0382 11.5456C16.0382 11.7454 16.2159 11.923 16.4157 11.923C16.6155 11.923 16.7931 11.7454 16.7931 11.5456C16.8153 8.90356 14.6617 6.75 11.9975 6.75Z" fill="white"/>
<path d="M14.4599 19.8926H9.5311C9.02046 19.8926 8.59863 20.3144 8.59863 20.825C8.59863 21.3357 9.02046 21.7575 9.5311 21.7575H14.4377C14.9705 21.7353 15.3923 21.3357 15.3923 20.825C15.3923 20.3144 14.9705 19.8926 14.4599 19.8926ZM14.4599 20.9805H9.5311C9.44229 20.9805 9.35349 20.9139 9.35349 20.8028C9.35349 20.6918 9.42009 20.6252 9.5311 20.6252H14.4377C14.5265 20.6252 14.6153 20.6918 14.6153 20.8028C14.6153 20.9139 14.5487 20.9805 14.4599 20.9805Z" fill="white"/>
<path d="M13.728 22.1348H10.2645C9.75386 22.1348 9.33203 22.5566 9.33203 23.0672C9.33203 23.5779 9.75386 23.9997 10.2645 23.9997H13.728C14.2386 23.9997 14.6604 23.5779 14.6604 23.0672C14.6604 22.5344 14.2386 22.1348 13.728 22.1348ZM13.728 23.2226H10.2645C10.1757 23.2226 10.0869 23.156 10.0869 23.045C10.0869 22.934 10.1535 22.8674 10.2645 22.8674H13.728C13.8168 22.8674 13.9056 22.934 13.9056 23.045C13.9056 23.156 13.8168 23.2226 13.728 23.2226Z" fill="white"/>
<path d="M11.9975 3.33025C12.2196 3.33025 12.375 3.15264 12.375 2.95282V0.377429C12.375 0.177614 12.1974 0 11.9975 0C11.7977 0 11.6201 0.177614 11.6201 0.377429V2.95282C11.6201 3.15264 11.7977 3.33025 11.9975 3.33025Z" fill="white"/>
<path d="M18.2795 1.90931C18.1019 1.7761 17.8799 1.84271 17.7689 1.99812L16.348 4.12948C16.2148 4.30709 16.2592 4.55131 16.4368 4.66232C16.5034 4.70672 16.57 4.72893 16.6366 4.72893C16.7698 4.72893 16.8808 4.66232 16.9474 4.55131L18.3683 2.41995C18.5015 2.26454 18.4571 2.02032 18.2795 1.90931Z" fill="white"/>
<path d="M7.4888 4.64133C7.5554 4.64133 7.62201 4.61913 7.68861 4.57473C7.86623 4.46372 7.91063 4.2195 7.79962 4.04189L6.42312 1.88833C6.31211 1.71071 6.06789 1.66631 5.89028 1.77732C5.71267 1.88833 5.66826 2.13254 5.77927 2.31016L7.15577 4.46372C7.24458 4.59693 7.35559 4.64133 7.4888 4.64133Z" fill="white"/>
<path d="M4.80356 6.99464L2.56119 5.77354C2.38357 5.68473 2.13935 5.75134 2.05055 5.92895C1.93954 6.10657 2.00614 6.35079 2.20596 6.43959L4.44833 7.66069C4.51493 7.68289 4.55934 7.70509 4.62594 7.70509C4.75915 7.70509 4.89236 7.63849 4.95897 7.50528C5.04778 7.32766 4.98117 7.08344 4.80356 6.99464Z" fill="white"/>
<path d="M21.9659 5.92895C21.8771 5.75134 21.6329 5.68473 21.4552 5.77354L19.1907 6.99464C19.0131 7.08344 18.9465 7.32766 19.0353 7.50528C19.1019 7.63849 19.2351 7.70509 19.3683 7.70509C19.4349 7.70509 19.5015 7.68289 19.5459 7.66069L21.8105 6.43959C21.9881 6.35079 22.0547 6.10657 21.9659 5.92895Z" fill="white"/>
</g>
<defs>
<clipPath id="clip0">
<rect width="24" height="24" fill="white"/>
</clipPath>
</defs>
</svg>
