<svg width="24" height="24" viewBox="0 0 24 24" fill="none" xmlns="http://www.w3.org/2000/svg">
<path d="M21.4691 1.16602H5.94989C4.60304 1.16602 3.50727 2.25154 3.50727 3.5815L3.40726 17.247H0.378605C0.163967 17.247 0 17.4368 0 17.6514V19.5321C0 21.2927 1.40891 22.7325 3.10931 22.8114V22.834H16.1781V22.8086C16.2753 22.8126 16.3341 22.834 16.4009 22.834H16.4102C18.2237 22.8234 19.6856 21.3452 19.6761 19.5317V7.57897H23.6214C23.836 7.57897 24 7.38464 24 7.17019V3.71947C24.0024 2.31702 22.8716 1.17607 21.4691 1.16602V1.16602ZM3.27935 22.0567H3.27669C1.89417 22.0567 0.777327 20.9141 0.777327 19.5317V18.0243H13.1174V19.5253C13.1144 20.4001 13.4599 21.2401 14.0777 21.8595C14.1433 21.9256 14.212 21.9595 14.2822 22.0567H3.27935ZM18.8988 19.5313C18.8988 20.9141 17.7927 22.0567 16.4096 22.0567H16.4017C15.0117 22.0466 13.8915 20.9154 13.8947 19.5255V17.6514C13.8959 17.4337 13.7237 17.2546 13.5061 17.247H4.18459L4.2846 3.58416C4.2846 2.68025 5.03156 1.94334 5.94989 1.94334H19.6341C19.1912 2.42917 18.8988 3.04386 18.8988 3.72991V19.5313ZM23.2226 3.7263V6.80164H19.6761V3.72915C19.6761 2.75635 20.4853 1.94334 21.4577 1.94334H21.4685C22.4434 1.95302 23.2272 2.74838 23.2226 3.72345V3.7263Z" fill="white"/>
<path d="M9.12667 10.7334L11.1305 12.1034C11.2613 12.1936 11.4342 12.1936 11.5649 12.1034L13.5627 10.7338C14.2567 10.2603 14.7693 9.27042 14.7693 8.43103V5.65914C14.7735 5.51264 14.6926 5.37676 14.5621 5.31014L11.511 3.80938C11.404 3.75625 11.2784 3.75625 11.1713 3.80938L8.12597 5.30597C7.9954 5.37258 7.91475 5.50846 7.91911 5.65497V8.43103C7.91911 9.27042 8.43284 10.2603 9.12667 10.7334ZM8.69644 5.8975L11.3442 4.59108L13.992 5.90111V8.43103C13.992 9.0165 13.6083 9.76118 13.1241 10.0912L11.3397 11.3117L9.56221 10.0914C9.07808 9.76099 8.69644 9.0165 8.69644 8.43103V5.8975Z" fill="white"/>
<path d="M10.6882 9.01777C10.7607 9.09178 10.8598 9.13372 10.9634 9.13429H10.9644C11.0676 9.13391 11.1665 9.09254 11.2392 9.01929L12.7853 7.4726C12.9373 7.32078 12.9373 7.07445 12.7855 6.92263C12.6338 6.77061 12.3875 6.77061 12.2357 6.92244L10.9657 8.19224L10.458 7.67965C10.3068 7.52707 10.0607 7.52593 9.90807 7.67718C9.75549 7.82843 9.75454 8.07457 9.9056 8.22716L10.6882 9.01777Z" fill="white"/>
<path d="M16.1785 13.2148H6.85058C6.63594 13.2148 6.46191 13.3889 6.46191 13.6035C6.46191 13.8181 6.63594 13.9922 6.85058 13.9922H16.1785C16.3932 13.9922 16.5672 13.8181 16.5672 13.6035C16.5672 13.3889 16.3932 13.2148 16.1785 13.2148Z" fill="white"/>
<path d="M16.1785 15.0117H6.85058C6.63594 15.0117 6.46191 15.1857 6.46191 15.4004C6.46191 15.615 6.63594 15.789 6.85058 15.789H16.1785C16.3932 15.789 16.5672 15.615 16.5672 15.4004C16.5672 15.1857 16.3932 15.0117 16.1785 15.0117Z" fill="white"/>
</svg>
